HIERARCHY
ROOT hip
{
  OFFSET 0 0 0
  CHANNELS 6 Xposition Yposition Zposition Zrotation Yrotation Xrotation
  JOINT abdomen
  {
    OFFSET 0 20.6881 -0.73152
    CHANNELS 3 Zrotation Xrotation Yrotation
    JOINT chest
    {
      OFFSET 0 11.7043 -0.48768
      CHANNELS 3 Zrotation Xrotation Yrotation
      JOINT neck
      {
        OFFSET 0 22.1894 -2.19456
        CHANNELS 3 Zrotation Xrotation Yrotation
        JOINT head
        {
          OFFSET -0.24384 7.07133 1.2192
          CHANNELS 3 Zrotation Xrotation Yrotation
          JOINT leftEye
          {
            OFFSET 4.14528 8.04674 8.04672
            CHANNELS 3 Zrotation Xrotation Yrotation
            End Site
            {
              OFFSET 1 0 0
            }
          }
          JOINT rightEye
          {
            OFFSET -3.6576 8.04674 8.04672
            CHANNELS 3 Zrotation Xrotation Yrotation
            End Site
            {
              OFFSET 1 0 0
            }
          }
        }
      }
      JOINT rCollar
      {
        OFFSET -2.68224 19.2634 -4.8768
        CHANNELS 3 Zrotation Xrotation Yrotation
        JOINT rShldr
        {
          OFFSET -8.77824 -1.95073 1.46304
          CHANNELS 3 Zrotation Xrotation Yrotation
          JOINT rForeArm
          {
            OFFSET -28.1742 -1.7115 0.48768
            CHANNELS 3 Zrotation Xrotation Yrotation
            JOINT rHand
            {
              OFFSET -22.5879 0.773209 7.07136
              CHANNELS 3 Zrotation Xrotation Yrotation
              JOINT rThumb1
              {
                OFFSET -1.2192 -0.487915 3.41376
                CHANNELS 3 Zrotation Xrotation Yrotation
                JOINT rThumb2
                {
                  OFFSET -3.37035 -0.52449 3.41376
                  CHANNELS 3 Zrotation Xrotation Yrotation
                  End Site
                  {
                    OFFSET -1.78271 -1.18214 1.43049
                  }
                }
              }
              JOINT rIndex1
              {
                OFFSET -7.75947 0.938293 5.60832
                CHANNELS 3 Zrotation Xrotation Yrotation
                JOINT rIndex2
                {
                  OFFSET -2.54057 -0.884171 1.56538
                  CHANNELS 3 Zrotation Xrotation Yrotation
                  End Site
                  {
                    OFFSET -1.62519 -0.234802 1.16502
                  }
                }
              }
              JOINT rMid1
              {
                OFFSET -8.24714 1.18213 3.41376
                CHANNELS 3 Zrotation Xrotation Yrotation
                JOINT rMid2
                {
                  OFFSET -3.10165 -0.590103 1.0647
                  CHANNELS 3 Zrotation Xrotation Yrotation
                  End Site
                  {
                    OFFSET -2.48547 -0.328903 0.83742
                  }
                }
              }
              JOINT rRing1
              {
                OFFSET -8.82822 0.546677 1.51678
                CHANNELS 3 Zrotation Xrotation Yrotation
                JOINT rRing2
                {
                  OFFSET -2.60934 -0.819778 -0.0198488
                  CHANNELS 3 Zrotation Xrotation Yrotation
                  End Site
                  {
                    OFFSET -2.33842 -0.294052 0.168128
                  }
                }
              }
              JOINT rPinky1
              {
                OFFSET -8.27202 -0.0477905 -0.4584
                CHANNELS 3 Zrotation Xrotation Yrotation
                JOINT rPinky2
                {
                  OFFSET -1.82734 -0.647385 -0.700984
                  CHANNELS 3 Zrotation Xrotation Yrotation
                  End Site
                  {
                    OFFSET -1.69225 -0.51767 -0.607171
                  }
                }
              }
            }
          }
        }
      }
      JOINT lCollar
      {
        OFFSET 2.68224 19.2634 -4.8768
        CHANNELS 3 Zrotation Xrotation Yrotation
        JOINT lShldr
        {
          OFFSET 8.77824 -1.95073 1.46304
          CHANNELS 3 Zrotation Xrotation Yrotation
          JOINT lForeArm
          {
            OFFSET 28.1742 -1.7115 0.48768
            CHANNELS 3 Zrotation Xrotation Yrotation
            JOINT lHand
            {
              OFFSET 22.5879 0.773209 7.07136
              CHANNELS 3 Zrotation Xrotation Yrotation
              JOINT lThumb1
              {
                OFFSET 1.2192 -0.487915 3.41376
                CHANNELS 3 Zrotation Xrotation Yrotation
                JOINT lThumb2
                {
                  OFFSET 3.37035 -0.52449 3.41376
                  CHANNELS 3 Zrotation Xrotation Yrotation
                  End Site
                  {
                    OFFSET 1.78271 -1.18214 1.43049
                  }
                }
              }
              JOINT lIndex1
              {
                OFFSET 7.75947 0.938293 5.60832
                CHANNELS 3 Zrotation Xrotation Yrotation
                JOINT lIndex2
                {
                  OFFSET 2.54057 -0.884171 1.56538
                  CHANNELS 3 Zrotation Xrotation Yrotation
                  End Site
                  {
                    OFFSET 1.62519 -0.234802 1.16502
                  }
                }
              }
              JOINT lMid1
              {
                OFFSET 8.24714 1.18213 3.41376
                CHANNELS 3 Zrotation Xrotation Yrotation
                JOINT lMid2
                {
                  OFFSET 3.10165 -0.590103 1.0647
                  CHANNELS 3 Zrotation Xrotation Yrotation
                  End Site
                  {
                    OFFSET 2.48547 -0.328903 0.83742
                  }
                }
              }
              JOINT lRing1
              {
                OFFSET 8.82822 0.546677 1.51678
                CHANNELS 3 Zrotation Xrotation Yrotation
                JOINT lRing2
                {
                  OFFSET 2.60934 -0.819778 -0.0198488
                  CHANNELS 3 Zrotation Xrotation Yrotation
                  End Site
                  {
                    OFFSET 2.33842 -0.294052 0.168128
                  }
                }
              }
              JOINT lPinky1
              {
                OFFSET 8.27202 -0.0477905 -0.4584
                CHANNELS 3 Zrotation Xrotation Yrotation
                JOINT lPinky2
                {
                  OFFSET 1.82734 -0.647385 -0.700984
                  CHANNELS 3 Zrotation Xrotation Yrotation
                  End Site
                  {
                    OFFSET 1.69225 -0.51767 -0.607171
                  }
                }
              }
            }
          }
        }
      }
    }
  }
  JOINT rButtock
  {
    OFFSET -8.77824 4.35084 1.2192
    CHANNELS 3 Zrotation Xrotation Yrotation
    JOINT rThigh
    {
      OFFSET 0 -1.70687 -2.19456
      CHANNELS 3 Zrotation Xrotation Yrotation
      JOINT rShin
      {
        OFFSET 0 -36.8199 0.73152
        CHANNELS 3 Zrotation Xrotation Yrotation
        JOINT rFoot
        {
          OFFSET 0.73152 -45.1104 -5.12064
          CHANNELS 3 Zrotation Xrotation Yrotation
          End Site
          {
            OFFSET -1.1221 -3.69964 12.103
          }
        }
      }
    }
  }
  JOINT lButtock
  {
    OFFSET 8.77824 4.35084 1.2192
    CHANNELS 3 Zrotation Xrotation Yrotation
    JOINT lThigh
    {
      OFFSET 0 -1.70687 -2.19456
      CHANNELS 3 Zrotation Xrotation Yrotation
      JOINT lShin
      {
        OFFSET 0 -36.8199 0.73152
        CHANNELS 3 Zrotation Xrotation Yrotation
        JOINT lFoot
        {
          OFFSET -0.73152 -45.1104 -5.12064
          CHANNELS 3 Zrotation Xrotation Yrotation
          End Site
          {
            OFFSET 1.1221 -3.69964 12.103
          }
        }
      }
    }
  }
}
MOTION
Frames:	4
Frame Time:	0.03333
0.0011663883924484253 -11.600393801927567 -0.05388092249631882 -4.145843505859375 3.437324285507202 5.94563102722168 -1.8806425333023071 13.932750701904297 3.5129287242889404 2.968061685562134 -9.25924301147461 1.1391948461532593 -5.2940144538879395 15.064189910888672 -4.057594299316406 9.059760093688965 -24.14859962463379 -5.876926898956299 -0.01442611776292324 0.15681131184101105 -0.02236667089164257 -0.06131798028945923 0.060468196868896484 0.07739057391881943 -0.05788975954055786 0.016907822340726852 0.1032010167837143 47.78571701049805 38.06885528564453 16.978515625 -27.390504837036133 -28.1083927154541 63.830867767333984 -0.23110011219978333 -10.739367485046387 -1.625331997871399 -0.0497833676636219 0.06268823891878128 -0.06918103992938995 0.10357151925563812 0.027714496478438377 0.0843956246972084 0.07211892306804657 0.005812136456370354 0.0065435003489255905 7.703070640563965 5.465137481689453 0.4862777888774872 -0.01792706735432148 0.049028344452381134 0.019538750872015953 2.8878173828125 1.0586965084075928 0.06234150007367134 0.0027993218973279 0.030684970319271088 -0.005470326170325279 10.367220878601074 0.7155929207801819 0.0015808427706360817 -0.009833545424044132 0.007847003638744354 -0.034408632665872574 2.239898920059204 -0.7339029312133789 -0.1452147662639618 0.03140740096569061 -0.029139146208763123 0.0811699628829956 -54.3857307434082 40.19792938232422 -27.694799423217773 26.744731903076172 -25.37071990966797 -59.84879684448242 0.19738663733005524 -12.435757637023926 1.8259705305099487 -0.045825812965631485 -0.10680603235960007 -0.040201473981142044 0.012478097341954708 -0.11614999175071716 -0.09877313673496246 -0.03207864984869957 -0.13806003332138062 0.03787553310394287 -7.727242946624756 5.481082439422607 -0.3688354790210724 0.00987720675766468 -0.07728186994791031 -0.08587092906236649 -2.920687437057495 1.0060030221939087 -0.17212514579296112 -0.03006303869187832 -0.041020456701517105 0.06883086264133453 -10.403401374816895 0.8108548521995544 0.03365335240960121 -0.014244498685002327 -0.025663524866104126 0.029910510405898094 -2.1717145442962646 -0.8016935586929321 0.2535938322544098 0.00969313271343708 0.08696366846561432 -0.018488654866814613 -22.958084106445312 -39.2300910949707 -19.294523239135742 -1.3968108892440796 64.0256118774414 2.5269343852996826 -3.74558162689209 -11.11099910736084 -9.69356918334961 -0.020883560180664062 -0.013983551412820816 0.015601065009832382 28.75642967224121 -38.830650329589844 21.891986846923828 1.4766881465911865 64.77506256103516 -2.634563446044922 4.11552619934082 -10.91383171081543 13.568929672241211
0.0010309740900993347 -11.598565429449081 -0.1109512522816658 -3.9995100498199463 4.0335001945495605 5.992848873138428 -1.7247660160064697 13.99365234375 3.5127291679382324 2.978900671005249 -9.287304878234863 1.0822296142578125 -5.235570430755615 15.066123962402344 -3.930940628051758 9.07839584350586 -24.129194259643555 -5.648273944854736 -0.016898933798074722 0.12320413440465927 -0.028841426596045494 -0.031646840274333954 0.060182489454746246 0.05086402967572212 -0.05896496772766113 0.0435137003660202 0.043588198721408844 48.01706314086914 38.37334442138672 16.681074142456055 -27.486400604248047 -28.471647262573242 64.52255249023438 -0.28783944249153137 -11.611166954040527 -1.7159429788589478 -0.06435693055391312 0.059048570692539215 -0.06454014033079147 0.09299077838659286 0.05383974686264992 0.12324780970811844 0.05096608027815819 0.02338086999952793 0.005595938768237829 7.658684730529785 5.476021766662598 0.4851124584674835 -0.019917957484722137 0.03708639368414879 0.047238536179065704 2.904587745666504 1.0146174430847168 0.034654002636671066 0.010829067789018154 0.012450309470295906 -0.020699268206954002 10.34611988067627 0.7139975428581238 -0.03524273261427879 -0.0019109590211883187 0.021863719448447227 -0.020952172577381134 2.27498459815979 -0.7232641577720642 -0.14219346642494202 0.07515978068113327 -0.04480203241109848 0.08331181854009628 -53.82082748413086 39.88713836669922 -28.47930145263672 26.76292610168457 -25.537765502929688 -60.05115509033203 0.19246931374073029 -12.314146041870117 1.8145833015441895 -0.07732424885034561 -0.11809656769037247 -0.08364950120449066 -0.0041729179210960865 -0.10375077277421951 -0.09553360193967819 -0.04132727533578873 -0.15194351971149445 0.006045890506356955 -7.736850261688232 5.5085368156433105 -0.3333081305027008 -0.03554097190499306 -0.08516475558280945 -0.08728378266096115 -2.9394562244415283 1.0268826484680176 -0.1573176085948944 -0.024913104251027107 -0.08212330937385559 0.07550479471683502 -10.428200721740723 0.8211926221847534 0.0452103391289711 0.011638092808425426 -0.028730878606438637 0.05073601379990578 -2.1781373023986816 -0.7558280229568481 0.28865736722946167 0.03875080496072769 0.1035739853978157 -0.02301737107336521 -23.017269134521484 -39.321998596191406 -19.55179786682129 -1.4607713222503662 64.21759796142578 2.5986552238464355 -3.787489175796509 -11.208009719848633 -9.762718200683594 0.02335088886320591 -0.0078420490026474 0.00889221765100956 29.06517791748047 -39.0465087890625 22.169776916503906 1.483787178993225 65.10843658447266 -2.6569430828094482 4.051126956939697 -11.012688636779785 13.448066711425781
0.029297173023223877 -10.737156122922897 -0.057066697627305984 -89.75605010986328 82.62591552734375 -162.2942657470703 3.074281692504883 22.378585815429688 3.2605886459350586 2.0835580825805664 -12.223848342895508 1.2833002805709839 -1.2307283878326416 14.604792594909668 1.783787727355957 3.6190903186798096 -27.98290252685547 6.394805431365967 -0.6984675526618958 0.00671121571213007 -0.26217323541641235 0.08877642452716827 -0.21570123732089996 -0.2716696262359619 0.04733031988143921 0.17757540941238403 -0.035168759524822235 49.531829833984375 5.786246299743652 0.8052077293395996 -27.092355728149414 -26.666391372680664 61.93519592285156 -1.3335062265396118 -31.091392517089844 -4.674784183502197 -0.056031107902526855 0.1910664439201355 -0.12844820320606232 0.15032993257045746 0.07011368125677109 0.047269415110349655 0.01746835932135582 -0.11659760773181915 0.04375091567635536 7.400878429412842 5.4920430183410645 0.41048088669776917 0.008236940950155258 0.32309553027153015 -0.09173855930566788 2.999502182006836 0.9745370745658875 0.12332002073526382 -0.12264326959848404 -0.015720143914222717 0.1420384645462036 10.447494506835938 0.8731697797775269 -0.16914640367031097 -0.04049810394644737 0.007592185866087675 0.04854641109704971 2.0625858306884766 -0.7228401899337769 -0.42986825108528137 0.03746172785758972 -0.06730587780475616 -0.13596145808696747 -0.4954962134361267 70.85481262207031 -72.94037628173828 28.84273338317871 -33.0296745300293 -72.32622528076172 1.7647364139556885 -34.146697998046875 5.526709079742432 -0.3495791554450989 -0.03984178230166435 -0.03498497232794762 -0.11335603892803192 -0.2467130422592163 -0.21113380789756775 0.1708381026983261 -0.06715943664312363 -0.000537482846993953 -7.838192462921143 5.350630760192871 -0.5930051207542419 -0.03386770933866501 -0.004330775700509548 -0.13071231544017792 -3.0021469593048096 0.909447968006134 -0.08182444423437119 -0.13682346045970917 -0.23778054118156433 0.3067821264266968 -10.411971092224121 0.8515158891677856 0.1530533730983734 0.040428198873996735 -0.12606322765350342 0.11298464983701706 -1.9251949787139893 -0.6896336078643799 0.4525722563266754 0.07056821882724762 0.25748127698898315 -0.147940531373024 -42.1389045715332 -46.44369125366211 -34.700828552246094 -3.35316801071167 80.79712677001953 4.749502658843994 -5.506820201873779 -20.181291580200195 -10.480533599853516 0.013792779296636581 0.13708174228668213 -0.03932974115014076 73.62876892089844 -55.717586517333984 62.40229797363281 173.33628845214844 79.72200775146484 -174.85260009765625 3.5728843212127686 -22.877559661865234 7.86185359954834
0.17087291926145554 -11.163096874952316 -0.14700563624501228 -118.42648315429688 75.59041595458984 -176.12396240234375 6.376646518707275 24.951648712158203 6.0208940505981445 -0.1887468844652176 -12.239460945129395 2.398350238800049 0.3152344524860382 12.857087135314941 7.498847961425781 1.9646117687225342 -26.792282104492188 15.667346954345703 -0.36542826890945435 -0.29079577326774597 0.0024751145392656326 0.11098646372556686 -0.010305101051926613 -0.16545207798480988 0.18127556145191193 0.24031347036361694 0.11442739516496658 47.55204772949219 10.795255661010742 -1.0651285648345947 -28.061050415039062 -30.08629608154297 67.0075912475586 -1.648085117340088 -32.319087982177734 -4.5063090324401855 0.26587793231010437 0.37062153220176697 0.15907122194766998 0.19932949542999268 0.235101580619812 0.22905166447162628 -0.1422254741191864 -0.037792641669511795 0.47754400968551636 6.906394958496094 5.936138153076172 0.8501290678977966 0.21786485612392426 -0.028417477384209633 -0.06532394140958786 3.045883893966675 1.1119760274887085 0.4007755517959595 -0.7212420701980591 0.16246770322322845 0.38289564847946167 10.383975982666016 0.7707731127738953 -0.1340816766023636 0.24436832964420319 0.2565770745277405 0.3923998177051544 1.8089321851730347 -1.005145788192749 -0.3067857325077057 -0.11388936638832092 0.023836025968194008 0.04775699973106384 26.563844680786133 66.53480529785156 -107.8814697265625 28.347883224487305 -29.979928970336914 -67.10199737548828 1.4470505714416504 -27.162342071533203 4.899981498718262 -0.3768656849861145 0.10199884325265884 -0.2281668335199356 -0.057771239429712296 -0.13902094960212708 -0.13739418983459473 0.5491664409637451 0.22135958075523376 0.2502768933773041 -7.891712188720703 5.297773361206055 -0.2646540403366089 0.42639634013175964 0.7134878635406494 -0.06658951938152313 -3.0553953647613525 0.8847242593765259 -0.4077725410461426 -0.1084524393081665 0.0824381485581398 0.12460153549909592 -9.757709503173828 0.6016926169395447 0.13676247000694275 -0.014145146124064922 -0.05711738020181656 -0.046252183616161346 -1.8832038640975952 -0.7888898849487305 0.319225937128067 -0.1957625448703766 -0.2732313275337219 -0.17058047652244568 -39.37837600708008 -43.481632232666016 -28.364450454711914 -4.48213529586792 82.0328140258789 4.9877095222473145 -5.901793479919434 -21.423625946044922 -9.55162239074707 -0.07314025610685349 0.2961106300354004 -0.013266174122691154 69.32810974121094 -54.13547897338867 54.35713195800781 166.0230255126953 86.25523376464844 -166.80186462402344 4.163388729095459 -23.390499114990234 9.114531517028809
